<svg id="additional" xmlns="http://www.w3.org/2000/svg" width="41.5" height="41.5" viewBox="0 0 41.5 41.5">
  <path id="Subtraction_1" data-name="Subtraction 1" d="M20.75,41.5A20.755,20.755,0,0,1,12.673,1.631,20.755,20.755,0,0,1,28.826,39.869,20.619,20.619,0,0,1,20.75,41.5ZM10.261,18.522a1,1,0,0,0-1,1v1.7a1,1,0,0,0,1,1h8.261v8.262a1,1,0,0,0,1,1h1.7a1,1,0,0,0,1-1V22.226h8.262a1,1,0,0,0,1-1v-1.7a1,1,0,0,0-1-1H22.226V10.261a1,1,0,0,0-1-1h-1.7a1,1,0,0,0-1,1v8.261Z" transform="translate(0 0)" fill="#353031"/>
</svg>
