<svg xmlns="http://www.w3.org/2000/svg" width="41.502" height="41.502" viewBox="0 0 41.502 41.502">
  <path id="apple" d="M5072.355,2660.447a20.751,20.751,0,1,0,20.751,20.75A20.751,20.751,0,0,0,5072.355,2660.447Zm.1,10.332a5.411,5.411,0,0,1,3.49-1.877,5.009,5.009,0,0,1-1.112,3.708,4.555,4.555,0,0,1-3.52,1.786A4.649,4.649,0,0,1,5072.451,2670.779Zm7.515,17.646c-.964,1.466-2.323,3.3-4,3.308-1.5.014-1.881-.975-3.911-.958s-2.45.977-3.947.962c-1.682-.016-2.968-1.665-3.931-3.128-2.7-4.105-2.98-8.918-1.314-11.478a5.962,5.962,0,0,1,4.793-2.881c1.784,0,2.9.979,4.378.979,1.432,0,2.3-.981,4.365-.981a5.829,5.829,0,0,1,4.387,2.315,5.022,5.022,0,0,0,.665,9.093A16.47,16.47,0,0,1,5079.966,2688.425Z" transform="translate(-5051.604 -2660.447)" fill="#353031"/>
</svg>
