<svg xmlns="http://www.w3.org/2000/svg" width="41.5" height="41.5" viewBox="0 0 41.5 41.5">
  <path id="deezer" d="M20.749,41.5A20.755,20.755,0,0,1,12.673,1.631,20.755,20.755,0,0,1,28.826,39.869,20.62,20.62,0,0,1,20.749,41.5ZM28.71,25.931v3.7h6.483v-3.7Zm-7.409,0v3.7h6.483v-3.7Zm-7.409,0v3.7h6.483v-3.7Zm-7.409,0v3.7h6.483v-3.7ZM28.71,21.3v3.7h6.483V21.3Zm-7.409,0v3.7h6.483V21.3Zm-7.409,0v3.7h6.483V21.3ZM28.71,16.67v3.7h6.483v-3.7Zm-14.818,0v3.7h6.483v-3.7ZM28.71,12.039v3.7h6.483v-3.7Z" fill="#353031"/>
</svg>
