<svg xmlns="http://www.w3.org/2000/svg" width="28.812" height="28.813" viewBox="0 0 28.812 28.813">
  <g id="Group_45" data-name="Group 45" transform="translate(-1417 -372)">
    <ellipse id="Ellipse_4" data-name="Ellipse 4" cx="11.5" cy="11" rx="11.5" ry="11" transform="translate(1420 375)" fill="#fff"/>
    <path id="Path_16" data-name="Path 16" d="M2186.729,3050.114a14.406,14.406,0,1,0,14.406,14.406A14.406,14.406,0,0,0,2186.729,3050.114Zm4.624,8.361c-.531,0-1.063-.01-1.594,0a3.731,3.731,0,0,0-.722.083,1.009,1.009,0,0,0-.814.853,2.954,2.954,0,0,0-.059.556c-.007.679,0,1.359,0,2.04,0,.02,0,.04,0,.071h3.055c.129,0,.131,0,.115.122-.07.535-.141,1.069-.21,1.6-.057.447-.113.893-.167,1.341-.02.17-.016.171-.187.171h-2.611v.129q0,3.977,0,7.954c0,.065,0,.13,0,.2h-3.367c0-.044,0-.088,0-.133q0-4.021,0-8.043v-.1h-2.68c-.119,0-.12,0-.12-.115,0-1,0-2.007,0-3.01,0-.092.027-.115.116-.114.855,0,1.71,0,2.565,0h.12v-.1c0-.834,0-1.669.007-2.5a4.549,4.549,0,0,1,.432-1.93,3.5,3.5,0,0,1,1.87-1.77,4.4,4.4,0,0,1,1.771-.336c.7.01,1.4.042,2.1.067.131.005.26.026.39.034.073,0,.1.031.1.1,0,.416,0,.832,0,1.248,0,.49,0,.979,0,1.47C2191.463,3058.45,2191.439,3058.476,2191.353,3058.475Z" transform="translate(-755.323 -2678.114)" fill="#fa9c46"/>
  </g>
</svg>
