<svg xmlns="http://www.w3.org/2000/svg" width="28.812" height="28.812" viewBox="0 0 28.812 28.812">
  <g id="Group_47" data-name="Group 47" transform="translate(-1417 -464)">
    <ellipse id="Ellipse_6" data-name="Ellipse 6" cx="11.5" cy="11" rx="11.5" ry="11" transform="translate(1420 467)" fill="#fff"/>
    <circle id="Ellipse_2" data-name="Ellipse 2" cx="3.095" cy="3.095" r="3.095" transform="translate(1428.315 475.247)" fill="#fa9c46"/>
    <path id="Path_14" data-name="Path 14" d="M2406.3,3081.806h-7.177a3.688,3.688,0,0,0-3.673,3.673v7.647a3.688,3.688,0,0,0,3.673,3.673h7.177a3.687,3.687,0,0,0,3.674-3.673v-7.647a3.687,3.687,0,0,0-3.674-3.673Zm-3.562,12.155a4.726,4.726,0,1,1,4.726-4.726A4.726,4.726,0,0,1,2402.736,3093.961Zm4.8-8.406a1.119,1.119,0,1,1,1.119-1.119A1.119,1.119,0,0,1,2407.537,3085.555Z" transform="translate(-971.303 -2610.898)" fill="#fa9c46"/>
    <path id="Path_15" data-name="Path 15" d="M2377.082,3050.115a14.406,14.406,0,1,0,14.406,14.406A14.406,14.406,0,0,0,2377.082,3050.115Zm8.582,18.23a5.008,5.008,0,0,1-4.993,4.992h-7.177a5.008,5.008,0,0,1-4.993-4.992V3060.7a5.008,5.008,0,0,1,4.993-4.993h7.177a5.008,5.008,0,0,1,4.993,4.993Z" transform="translate(-945.677 -2586.115)" fill="#fa9c46"/>
  </g>
</svg>
