<svg id="spotify" xmlns="http://www.w3.org/2000/svg" width="41.498" height="41.5" viewBox="0 0 41.498 41.5">
  <path id="Path_19" data-name="Path 19" d="M4954.747,2660.447A20.75,20.75,0,1,0,4975.5,2681.2,20.75,20.75,0,0,0,4954.747,2660.447Zm9.516,29.928a1.293,1.293,0,0,1-1.778.431c-4.873-2.978-11.006-3.651-18.229-2a1.293,1.293,0,1,1-.575-2.521c7.9-1.807,14.685-1.029,20.153,2.313A1.293,1.293,0,0,1,4964.263,2690.375Zm2.538-5.649a1.618,1.618,0,0,1-2.225.532c-5.576-3.427-14.079-4.421-20.676-2.418a1.618,1.618,0,1,1-.94-3.1c7.536-2.287,16.905-1.179,23.309,2.757A1.615,1.615,0,0,1,4966.8,2684.726Zm.221-5.884c-6.689-3.972-17.723-4.337-24.106-2.4a1.941,1.941,0,1,1-1.126-3.714c7.328-2.225,19.514-1.795,27.212,2.775a1.941,1.941,0,0,1-1.979,3.338Z" transform="translate(-4933.997 -2660.447)" fill="#353031"/>
</svg>
