<svg xmlns="http://www.w3.org/2000/svg" width="28.812" height="28.812" viewBox="0 0 28.812 28.812">
  <g id="Group_46" data-name="Group 46" transform="translate(-1417 -418)">
    <ellipse id="Ellipse_5" data-name="Ellipse 5" cx="11.5" cy="11" rx="11.5" ry="11" transform="translate(1420 422)" fill="#fff"/>
    <g id="Group_13" data-name="Group 13" transform="translate(1417 418)">
      <path id="Path_12" data-name="Path 12" d="M2621.339,3087.184h0Z" transform="translate(-2601.615 -3079.102)" fill="#fa9c46"/>
      <path id="Path_13" data-name="Path 13" d="M2545.266,3050.115h0a14.406,14.406,0,0,0-14.406,14.406h0a14.406,14.406,0,0,0,14.406,14.406h0a14.406,14.406,0,0,0,14.406-14.406h0A14.406,14.406,0,0,0,2545.266,3050.115Zm8.484,10.542v2.072a6.159,6.159,0,0,1-4.692-1.483v6.934a6.247,6.247,0,0,1-4.8,5.957,5.893,5.893,0,0,1-5.555-1.55h0a6.385,6.385,0,0,1-1.071-7.662,5.99,5.99,0,0,1,6.113-3.022v1.172s-.1,0-.006,0h.006v2.346h0a3.216,3.216,0,0,0-.878-.056h-.007a2.554,2.554,0,0,0-2.14,1.174,2.636,2.636,0,0,0-.479,1.945,2.964,2.964,0,0,0,1.158,1.939h0a2.82,2.82,0,0,0,4.364-2.364c0-.171-.017-13.333-.017-13.333h3.346a5.449,5.449,0,0,0,.172,1.346h0a4.95,4.95,0,0,0,1,1.827,2.521,2.521,0,0,0,.226.21c.027.023.056.044.084.065l0,0h0a4.562,4.562,0,0,0,3.174,1.239Z" transform="translate(-2530.86 -3050.115)" fill="#fa9c46"/>
    </g>
  </g>
</svg>
