<svg xmlns="http://www.w3.org/2000/svg" width="28.812" height="28.812" viewBox="0 0 28.812 28.812">
  <g id="Group_49" data-name="Group 49" transform="translate(-1417.094 -555)">
    <ellipse id="Ellipse_8" data-name="Ellipse 8" cx="11.5" cy="11" rx="11.5" ry="11" transform="translate(1420 558)" fill="#fff"/>
    <path id="Path_33" data-name="Path 33" d="M13.489,12.4,9.206,6.3H7l5.321,7.528.649.908L17.513,21.1h2.336l-5.581-7.787Z" transform="translate(1418.141 555.708)" fill="#fa9c46"/>
    <path id="Path_34" data-name="Path 34" d="M15.206.9A14.406,14.406,0,1,0,29.612,15.306,14.457,14.457,0,0,0,15.206.9Zm3.5,22.842-4.672-6.489L8.328,23.872H6.77l6.619-7.528L6.77,6.87h5.062l4.413,6.23L21.7,6.87h1.428l-6.23,7.138,6.879,9.734Z" transform="translate(1416.294 554.1)" fill="#fa9c46"/>
  </g>
</svg>
