<svg xmlns="http://www.w3.org/2000/svg" xmlns:xlink="http://www.w3.org/1999/xlink" width="41.499" height="41.499" viewBox="0 0 41.499 41.499">
  <defs>
    <clipPath id="clip-path">
      <rect id="Rectangle_2" data-name="Rectangle 2" width="41.499" height="41.499" fill="#353031"/>
    </clipPath>
  </defs>
  <g id="youtube" clip-path="url(#clip-path)">
    <path id="Path_31" data-name="Path 31" d="M20.75,0A20.75,20.75,0,1,0,41.5,20.749,20.75,20.75,0,0,0,20.75,0M33.811,21.7c-.04,2.943-.309,5.9-1.514,6.993-.465.422-.907.686-2.675.851-2.212.206-5.209.235-7.474.238q-1.4,0-2.8,0c-2.265,0-5.262-.033-7.474-.238-1.768-.164-2.21-.429-2.675-.851-1.216-1.1-1.479-4.1-1.515-7.07-.007-.557-.007-1.116,0-1.674.033-2.993.29-6.034,1.516-7.145.465-.422.907-.687,2.675-.851,2.212-.206,5.209-.235,7.474-.238q1.4,0,2.8,0c2.265,0,5.262.032,7.474.238,1.768.164,2.21.429,2.675.851,1.205,1.092,1.474,4.05,1.514,6.993q.013.95,0,1.9" transform="translate(0 0.001)" fill="#353031"/>
    <path id="Path_32" data-name="Path 32" d="M57.92,61.869l6.6-4-6.6-3.758Z" transform="translate(-39.733 -37.121)" fill="#353031"/>
  </g>
</svg>
