<svg xmlns="http://www.w3.org/2000/svg" width="28.812" height="28.812" viewBox="0 0 28.812 28.812">
  <g id="Group_48" data-name="Group 48" transform="translate(-1417 -509)">
    <ellipse id="Ellipse_7" data-name="Ellipse 7" cx="11.5" cy="11" rx="11.5" ry="11" transform="translate(1420 512)" fill="#fff"/>
    <path id="Path_17" data-name="Path 17" d="M2713.448,3049.8a14.406,14.406,0,1,0,14.407,14.406A14.406,14.406,0,0,0,2713.448,3049.8Zm9.069,15.066c-.028,2.043-.214,4.1-1.051,4.855-.323.293-.63.477-1.858.591-1.536.142-3.616.163-5.189.165h-1.947c-1.572,0-3.653-.023-5.189-.165-1.228-.114-1.534-.3-1.857-.591-.844-.765-1.027-2.848-1.052-4.908,0-.387,0-.775,0-1.162.023-2.078.2-4.189,1.053-4.96.323-.293.63-.477,1.857-.591,1.536-.143,3.616-.163,5.189-.165q.973,0,1.947,0c1.573,0,3.653.022,5.189.165,1.228.114,1.535.3,1.858.591.836.758,1.023,2.812,1.051,4.854C2722.524,3063.988,2722.524,3064.429,2722.517,3064.868Z" transform="translate(-1282.043 -2540.802)" fill="#fa9c46"/>
    <path id="Path_18" data-name="Path 18" d="M2756.963,3109.3l4.58-2.775-4.58-2.609Z" transform="translate(-1327.336 -2583.119)" fill="#fa9c46"/>
  </g>
</svg>
